<svg width="16" height="12" viewBox="0 0 16 12" fill="none" xmlns="http://www.w3.org/2000/svg">
<mask id="mask0_102_5030" style="mask-type:luminance" maskUnits="userSpaceOnUse" x="0" y="0" width="16" height="12">
<path d="M14.8571 0.357178H1.14286C0.511675 0.357178 0 0.868852 0 1.50003V10.6429C0 11.2741 0.511675 11.7857 1.14286 11.7857H14.8571C15.4883 11.7857 16 11.2741 16 10.6429V1.50003C16 0.868852 15.4883 0.357178 14.8571 0.357178Z" fill="white"/>
</mask>
<g mask="url(#mask0_102_5030)">
<path d="M14.8571 0.357178H1.14286C0.511675 0.357178 0 0.868852 0 1.50003V10.6429C0 11.2741 0.511675 11.7857 1.14286 11.7857H14.8571C15.4883 11.7857 16 11.2741 16 10.6429V1.50003C16 0.868852 15.4883 0.357178 14.8571 0.357178Z" fill="white"/>
<mask id="mask1_102_5030" style="mask-type:alpha" maskUnits="userSpaceOnUse" x="0" y="0" width="16" height="12">
<path d="M14.8571 0.357178H1.14286C0.511675 0.357178 0 0.868852 0 1.50003V10.6429C0 11.2741 0.511675 11.7857 1.14286 11.7857H14.8571C15.4883 11.7857 16 11.2741 16 10.6429V1.50003C16 0.868852 15.4883 0.357178 14.8571 0.357178Z" fill="white"/>
</mask>
<g mask="url(#mask1_102_5030)">
<path fill-rule="evenodd" clip-rule="evenodd" d="M16 0.357178H0V1.11908H16V0.357178ZM16 1.88099H0V2.64289H16V1.88099ZM0 3.4048H16V4.1667H0V3.4048ZM16 4.92861H0V5.69051H16V4.92861ZM0 6.45244H16V7.21432H0V6.45244ZM16 7.97621H0V8.73815H16V7.97621ZM0 9.50004H16V10.2619H0V9.50004ZM16 11.0239H0V11.7857H16V11.0239Z" fill="#D02F44"/>
<path d="M6.85714 0.357178H0V5.69051H6.85714V0.357178Z" fill="#46467F"/>
<g filter="url(#filter0_d_102_5030)">
<path fill-rule="evenodd" clip-rule="evenodd" d="M1.52558 1.50009C1.52558 1.71048 1.35502 1.88104 1.14463 1.88104C0.934232 1.88104 0.763672 1.71048 0.763672 1.50009C0.763672 1.2897 0.934232 1.11914 1.14463 1.11914C1.35502 1.11914 1.52558 1.2897 1.52558 1.50009ZM3.04939 1.50009C3.04939 1.71048 2.87883 1.88104 2.66844 1.88104C2.45804 1.88104 2.28748 1.71048 2.28748 1.50009C2.28748 1.2897 2.45804 1.11914 2.66844 1.11914C2.87883 1.11914 3.04939 1.2897 3.04939 1.50009ZM4.19224 1.88104C4.40264 1.88104 4.5732 1.71048 4.5732 1.50009C4.5732 1.2897 4.40264 1.11914 4.19224 1.11914C3.98185 1.11914 3.81129 1.2897 3.81129 1.50009C3.81129 1.71048 3.98185 1.88104 4.19224 1.88104ZM6.09698 1.50009C6.09698 1.71048 5.92647 1.88104 5.71605 1.88104C5.50566 1.88104 5.3351 1.71048 5.3351 1.50009C5.3351 1.2897 5.50566 1.11914 5.71605 1.11914C5.92647 1.11914 6.09698 1.2897 6.09698 1.50009ZM1.90653 2.64295C2.11692 2.64295 2.28748 2.47239 2.28748 2.262C2.28748 2.0516 2.11692 1.88104 1.90653 1.88104C1.69613 1.88104 1.52558 2.0516 1.52558 2.262C1.52558 2.47239 1.69613 2.64295 1.90653 2.64295ZM3.81129 2.262C3.81129 2.47239 3.64073 2.64295 3.43034 2.64295C3.21995 2.64295 3.04939 2.47239 3.04939 2.262C3.04939 2.0516 3.21995 1.88104 3.43034 1.88104C3.64073 1.88104 3.81129 2.0516 3.81129 2.262ZM4.95415 2.64295C5.16455 2.64295 5.3351 2.47239 5.3351 2.262C5.3351 2.0516 5.16455 1.88104 4.95415 1.88104C4.74376 1.88104 4.5732 2.0516 4.5732 2.262C4.5732 2.47239 4.74376 2.64295 4.95415 2.64295ZM6.09698 3.0239C6.09698 3.23429 5.92647 3.40485 5.71605 3.40485C5.50566 3.40485 5.3351 3.23429 5.3351 3.0239C5.3351 2.81351 5.50566 2.64295 5.71605 2.64295C5.92647 2.64295 6.09698 2.81351 6.09698 3.0239ZM4.19224 3.40485C4.40264 3.40485 4.5732 3.23429 4.5732 3.0239C4.5732 2.81351 4.40264 2.64295 4.19224 2.64295C3.98185 2.64295 3.81129 2.81351 3.81129 3.0239C3.81129 3.23429 3.98185 3.40485 4.19224 3.40485ZM3.04939 3.0239C3.04939 3.23429 2.87883 3.40485 2.66844 3.40485C2.45804 3.40485 2.28748 3.23429 2.28748 3.0239C2.28748 2.81351 2.45804 2.64295 2.66844 2.64295C2.87883 2.64295 3.04939 2.81351 3.04939 3.0239ZM1.14463 3.40485C1.35502 3.40485 1.52558 3.23429 1.52558 3.0239C1.52558 2.81351 1.35502 2.64295 1.14463 2.64295C0.934232 2.64295 0.763672 2.81351 0.763672 3.0239C0.763672 3.23429 0.934232 3.40485 1.14463 3.40485ZM2.28748 3.7858C2.28748 3.9962 2.11692 4.16676 1.90653 4.16676C1.69613 4.16676 1.52558 3.9962 1.52558 3.7858C1.52558 3.57541 1.69613 3.40485 1.90653 3.40485C2.11692 3.40485 2.28748 3.57541 2.28748 3.7858ZM3.43034 4.16676C3.64073 4.16676 3.81129 3.9962 3.81129 3.7858C3.81129 3.57541 3.64073 3.40485 3.43034 3.40485C3.21995 3.40485 3.04939 3.57541 3.04939 3.7858C3.04939 3.9962 3.21995 4.16676 3.43034 4.16676ZM5.3351 3.7858C5.3351 3.9962 5.16455 4.16676 4.95415 4.16676C4.74376 4.16676 4.5732 3.9962 4.5732 3.7858C4.5732 3.57541 4.74376 3.40485 4.95415 3.40485C5.16455 3.40485 5.3351 3.57541 5.3351 3.7858ZM5.71605 4.92867C5.92647 4.92867 6.09698 4.75811 6.09698 4.54771C6.09698 4.33732 5.92647 4.16676 5.71605 4.16676C5.50566 4.16676 5.3351 4.33732 5.3351 4.54771C5.3351 4.75811 5.50566 4.92867 5.71605 4.92867ZM4.5732 4.54771C4.5732 4.75811 4.40264 4.92867 4.19224 4.92867C3.98185 4.92867 3.81129 4.75811 3.81129 4.54771C3.81129 4.33732 3.98185 4.16676 4.19224 4.16676C4.40264 4.16676 4.5732 4.33732 4.5732 4.54771ZM2.66844 4.92867C2.87883 4.92867 3.04939 4.75811 3.04939 4.54771C3.04939 4.33732 2.87883 4.16676 2.66844 4.16676C2.45804 4.16676 2.28748 4.33732 2.28748 4.54771C2.28748 4.75811 2.45804 4.92867 2.66844 4.92867ZM1.52558 4.54771C1.52558 4.75811 1.35502 4.92867 1.14463 4.92867C0.934232 4.92867 0.763672 4.75811 0.763672 4.54771C0.763672 4.33732 0.934232 4.16676 1.14463 4.16676C1.35502 4.16676 1.52558 4.33732 1.52558 4.54771Z" fill="url(#paint0_linear_102_5030)"/>
</g>
</g>
</g>
<defs>
<filter id="filter0_d_102_5030" x="0.763672" y="1.11914" width="5.33301" height="32.381" filterUnits="userSpaceOnUse" color-interpolation-filters="sRGB">
<feFlood flood-opacity="0" result="BackgroundImageFix"/>
<feColorMatrix in="SourceAlpha" type="matrix" values="0 0 0 0 0 0 0 0 0 0 0 0 0 0 0 0 0 0 127 0" result="hardAlpha"/>
<feOffset dy="28.5714"/>
<feColorMatrix type="matrix" values="0 0 0 0 0 0 0 0 0 0 0 0 0 0 0 0 0 0 0.06 0"/>
<feBlend mode="normal" in2="BackgroundImageFix" result="effect1_dropShadow_102_5030"/>
<feBlend mode="normal" in="SourceGraphic" in2="effect1_dropShadow_102_5030" result="shape"/>
</filter>
<linearGradient id="paint0_linear_102_5030" x1="0.763672" y1="1.11914" x2="0.763672" y2="4.92866" gradientUnits="userSpaceOnUse">
<stop stop-color="white"/>
<stop offset="1" stop-color="#F0F0F0"/>
</linearGradient>
</defs>
</svg>
