<svg width="116" height="32" viewBox="0 0 116 32" fill="none" xmlns="http://www.w3.org/2000/svg">
<g clip-path="url(#clip0_114_13399)">
<path d="M64.1703 0.0498047V13.4199H61.9838L55.5902 4.31282H55.4777V13.4199H53.0195V0.0498047H55.2192L61.6061 9.1634H61.7255V0.0498047H64.1703Z" fill="white"/>
<path d="M71.181 13.6157C70.1871 13.6157 69.3259 13.4003 68.5971 12.9694C67.8683 12.5385 67.3028 11.9357 66.9009 11.161C66.5035 10.3863 66.3047 9.48107 66.3047 8.44524C66.3047 7.4094 66.5035 6.50196 66.9009 5.7229C67.3028 4.94385 67.8683 4.33889 68.5971 3.90803C69.3259 3.47715 70.1871 3.26172 71.181 3.26172C72.1748 3.26172 73.036 3.47715 73.7649 3.90803C74.4937 4.33889 75.0569 4.94385 75.4543 5.7229C75.8562 6.50196 76.0573 7.4094 76.0573 8.44524C76.0573 9.48107 75.8562 10.3863 75.4543 11.161C75.0569 11.9357 74.4937 12.5385 73.7649 12.9694C73.036 13.4003 72.1748 13.6157 71.181 13.6157ZM71.1942 11.7225C71.733 11.7225 72.1836 11.5767 72.5457 11.2851C72.9079 10.9891 73.1774 10.5931 73.354 10.0969C73.5351 9.60075 73.6257 9.04802 73.6257 8.43871C73.6257 7.82503 73.5351 7.27012 73.354 6.77398C73.1774 6.27347 72.9079 5.87524 72.5457 5.57927C72.1836 5.28333 71.733 5.13536 71.1942 5.13536C70.642 5.13536 70.1827 5.28333 69.8162 5.57927C69.4538 5.87524 69.1823 6.27347 69.0012 6.77398C68.8246 7.27012 68.7362 7.82503 68.7362 8.43871C68.7362 9.04802 68.8246 9.60075 69.0012 10.0969C69.1823 10.5931 69.4538 10.9891 69.8162 11.2851C70.1827 11.5767 70.642 11.7225 71.1942 11.7225Z" fill="white"/>
<path d="M81.8697 13.5962C81.0702 13.5962 80.3548 13.3938 79.7231 12.989C79.0915 12.5843 78.5924 11.9967 78.2258 11.2264C77.8591 10.456 77.6758 9.52029 77.6758 8.41918C77.6758 7.30499 77.8613 6.3649 78.2323 5.59891C78.6079 4.82857 79.1135 4.24755 79.7496 3.85585C80.3856 3.45978 81.0946 3.26177 81.8764 3.26177C82.4726 3.26177 82.9629 3.36187 83.3471 3.56207C83.7315 3.75792 84.0362 3.99512 84.2615 4.27365C84.4868 4.54786 84.6611 4.8068 84.785 5.05053H84.8842V0.0498047H87.2892V13.4199H84.9306V11.84H84.785C84.6611 12.0838 84.4823 12.3427 84.2482 12.6169C84.0142 12.8867 83.705 13.1174 83.3206 13.3089C82.9364 13.5004 82.4527 13.5962 81.8697 13.5962ZM82.5388 11.6572C83.0468 11.6572 83.4797 11.5223 83.8374 11.2525C84.1953 10.9783 84.4668 10.5975 84.6524 10.11C84.8379 9.62256 84.9306 9.0546 84.9306 8.40612C84.9306 7.75762 84.8379 7.19402 84.6524 6.71527C84.4713 6.23652 84.2018 5.8644 83.8441 5.59891C83.4907 5.33344 83.0556 5.20069 82.5388 5.20069C82.0043 5.20069 81.5582 5.33778 81.2005 5.61197C80.8428 5.88615 80.5734 6.2648 80.3923 6.74791C80.2112 7.231 80.1205 7.78374 80.1205 8.40612C80.1205 9.03284 80.2112 9.5921 80.3923 10.0839C80.5778 10.5714 80.8494 10.9565 81.2073 11.2394C81.5694 11.518 82.0133 11.6572 82.5388 11.6572Z" fill="white"/>
<path d="M94.3507 13.6157C93.3304 13.6157 92.4492 13.4068 91.7071 12.989C90.9695 12.5668 90.402 11.9706 90.0044 11.2002C89.607 10.4255 89.4082 9.51371 89.4082 8.46483C89.4082 7.43334 89.607 6.52807 90.0044 5.74902C90.4063 4.96561 90.9673 4.3563 91.6874 3.92108C92.4072 3.48151 93.2532 3.26172 94.2248 3.26172C94.852 3.26172 95.4439 3.36182 96.0004 3.56202C96.5614 3.75787 97.056 4.06253 97.4846 4.47599C97.9174 4.88945 98.2576 5.41607 98.5049 6.05585C98.7522 6.69127 98.8758 7.44857 98.8758 8.32772V9.05238H90.5344V7.45946H96.5769C96.5724 7.00682 96.473 6.60423 96.2787 6.2517C96.0844 5.89482 95.8126 5.6141 95.4637 5.40954C95.1192 5.20498 94.7173 5.10271 94.258 5.10271C93.7677 5.10271 93.3371 5.22023 92.966 5.45525C92.595 5.6859 92.3056 5.99056 92.098 6.36921C91.8949 6.7435 91.7911 7.15479 91.7868 7.60307V8.99362C91.7868 9.57681 91.8949 10.0773 92.1113 10.4951C92.3278 10.9086 92.6303 11.2263 93.0189 11.4483C93.4078 11.6659 93.8626 11.7747 94.3839 11.7747C94.7328 11.7747 95.0486 11.7268 95.3313 11.6311C95.614 11.531 95.8591 11.3852 96.0666 11.1937C96.2742 11.0022 96.431 10.765 96.5372 10.4821L98.7764 10.7302C98.6352 11.3134 98.3658 11.8226 97.9681 12.2578C97.575 12.6887 97.0715 13.0238 96.4575 13.2632C95.8436 13.4982 95.1414 13.6157 94.3507 13.6157Z" fill="white"/>
<path d="M53.0195 31.8047V18.4346H58.1079C59.1504 18.4346 60.0248 18.613 60.7317 18.9699C61.4428 19.3269 61.9793 19.8273 62.3415 20.4715C62.7081 21.1112 62.8915 21.8577 62.8915 22.7106C62.8915 23.568 62.7059 24.3123 62.335 24.9434C61.9683 25.57 61.4273 26.0554 60.7117 26.3993C59.9961 26.7388 59.1172 26.9085 58.0749 26.9085H54.4507V24.8977H57.7435C58.3531 24.8977 58.8522 24.8151 59.2408 24.6496C59.6295 24.4798 59.9167 24.2339 60.1022 23.9119C60.2921 23.5855 60.387 23.1851 60.387 22.7106C60.387 22.2363 60.2921 21.8315 60.1022 21.4965C59.9122 21.157 59.623 20.9002 59.2343 20.7261C58.8456 20.5477 58.3442 20.4585 57.7302 20.4585H55.4777V31.8047H53.0195ZM60.0293 25.7464L63.3885 31.8047H60.6455L57.346 25.7464H60.0293Z" fill="white"/>
<path d="M71.5332 27.5866V21.7764H73.9315V31.804H71.6059V30.0217H71.5C71.2702 30.5832 70.8926 31.0424 70.367 31.3992C69.8458 31.7561 69.2031 31.9345 68.439 31.9345C67.7721 31.9345 67.1824 31.7887 66.6701 31.4972C66.1621 31.2011 65.7645 30.7724 65.4775 30.2111C65.1903 29.6452 65.0469 28.962 65.0469 28.1611V21.7764H67.4452V27.7955C67.4452 28.4309 67.622 28.9359 67.9752 29.3102C68.3286 29.6844 68.7924 29.8716 69.3667 29.8716C69.7199 29.8716 70.0623 29.7867 70.3935 29.6169C70.7247 29.4472 70.9964 29.1948 71.2085 28.8596C71.4248 28.5203 71.5332 28.0958 71.5332 27.5866Z" fill="white"/>
<path d="M78.7968 25.9282V31.8037H76.3984V21.7761H78.6908V23.48H78.81C79.0441 22.9185 79.4174 22.4725 79.9297 22.1417C80.4465 21.8108 81.0847 21.6455 81.8445 21.6455C82.5468 21.6455 83.1585 21.7936 83.6798 22.0895C84.2053 22.3854 84.6117 22.8141 84.8987 23.3755C85.1904 23.937 85.3338 24.6182 85.3295 25.4189V31.8037H82.931V25.7845C82.931 25.1142 82.7544 24.5899 82.401 24.2112C82.052 23.8325 81.5685 23.6433 80.95 23.6433C80.5304 23.6433 80.1572 23.7347 79.8303 23.9173C79.5079 24.0959 79.2539 24.3548 79.0685 24.6943C78.8874 25.0338 78.7968 25.445 78.7968 25.9282Z" fill="white"/>
<path d="M90.1659 25.9292V31.8046H87.7676V21.7771H90.06V23.481H90.1793C90.4134 22.9195 90.7866 22.4735 91.2989 22.1427C91.8156 21.8118 92.454 21.6465 93.2136 21.6465C93.916 21.6465 94.5277 21.7945 95.0489 22.0904C95.5745 22.3863 95.9808 22.815 96.268 23.3765C96.5595 23.938 96.7031 24.6192 96.6987 25.4199V31.8046H94.3003V25.7855C94.3003 25.1152 94.1235 24.5909 93.7703 24.2122C93.4214 23.8335 92.9376 23.6443 92.3192 23.6443C91.8996 23.6443 91.5264 23.7357 91.1997 23.9183C90.8772 24.0969 90.6232 24.3558 90.4376 24.6953C90.2565 25.0348 90.1659 25.446 90.1659 25.9292Z" fill="white"/>
<path d="M103.642 32.0005C102.621 32.0005 101.74 31.7916 100.998 31.3737C100.261 30.9517 99.6931 30.3555 99.2954 29.5851C98.898 28.8103 98.6992 27.8984 98.6992 26.8496C98.6992 25.8181 98.898 24.9129 99.2954 24.1338C99.6973 23.3504 100.258 22.7411 100.978 22.3058C101.698 21.8663 102.544 21.6465 103.516 21.6465C104.143 21.6465 104.735 21.7465 105.291 21.9468C105.852 22.1427 106.347 22.4474 106.776 22.8608C107.208 23.2743 107.549 23.801 107.796 24.4406C108.043 25.076 108.167 25.8333 108.167 26.7126V27.4372H99.8255V25.8442H105.868C105.863 25.3916 105.764 24.989 105.57 24.6365C105.375 24.2797 105.104 23.9989 104.755 23.7943C104.41 23.5898 104.008 23.4876 103.549 23.4876C103.059 23.4876 102.628 23.6051 102.257 23.8401C101.886 24.0708 101.597 24.3753 101.389 24.754C101.186 25.1282 101.082 25.5396 101.078 25.9878V27.3783C101.078 27.9617 101.186 28.4621 101.402 28.88C101.619 29.2934 101.921 29.6112 102.31 29.8332C102.699 30.0507 103.154 30.1596 103.675 30.1596C104.024 30.1596 104.34 30.1116 104.622 30.016C104.905 29.9157 105.15 29.7701 105.358 29.5784C105.565 29.387 105.722 29.1497 105.828 28.8669L108.068 29.115C107.926 29.6982 107.657 30.2074 107.259 30.6425C106.866 31.0734 106.363 31.4087 105.749 31.648C105.135 31.883 104.432 32.0005 103.642 32.0005Z" fill="white"/>
<path d="M110.195 31.804V21.7764H112.521V23.4478H112.627C112.812 22.8689 113.13 22.4227 113.581 22.1095C114.036 21.7917 114.555 21.6328 115.138 21.6328C115.27 21.6328 115.418 21.6394 115.582 21.6525C115.75 21.6611 115.889 21.6764 115.999 21.6981V23.8721C115.898 23.8373 115.736 23.8068 115.516 23.7807C115.299 23.7501 115.089 23.7351 114.886 23.7351C114.449 23.7351 114.056 23.8285 113.707 24.0157C113.362 24.1985 113.091 24.453 112.892 24.7795C112.693 25.1059 112.594 25.4824 112.594 25.9089V31.804H110.195Z" fill="white"/>
<path fill-rule="evenodd" clip-rule="evenodd" d="M0 31.9879H7.883V25.1522C7.883 21.3926 7.91267 18.3166 7.94902 18.3166C7.98529 18.3166 8.30722 18.5933 8.66421 18.9313C9.02131 19.2695 9.86737 20.0579 10.5443 20.6836C11.2214 21.3092 12.8195 22.7921 14.0956 23.9785C18.9697 28.5102 20.3822 29.8212 21.4318 30.789L22.7617 31.9879L28.5155 31.9713L34.3291 31.9879L33.4013 31.0757C32.993 30.6849 31.1311 28.9488 29.2635 27.2177C27.396 25.4867 25.2246 23.4716 24.4381 22.7399C23.6519 22.0081 21.4566 19.9691 19.5598 18.209C11.3805 10.619 9.9718 9.30911 5.76445 5.381C3.32564 3.10409 1.031 0.961813 0.665129 0.620522L0 0V31.9879Z" fill="white"/>
<path fill-rule="evenodd" clip-rule="evenodd" d="M3.05744 0.415206C3.30285 0.643562 4.43562 1.67387 5.57472 2.70466C13.3732 9.76178 16.433 12.5473 21.668 17.3549C24.9233 20.3445 27.8309 23.0172 28.1295 23.2945C28.6409 23.7692 34.1431 28.8291 36.4328 30.9302L37.5184 31.9879H47.9482L41.7791 26.3452C38.4886 23.3227 33.6602 18.8901 31.0497 16.4953C28.4393 14.1004 26.0357 11.8924 25.7086 11.5886C22.7739 8.86326 21.3407 7.54935 21.0791 7.34485C20.939 7.23542 20.8245 7.1049 20.8245 7.05475C20.8245 7.00009 22.7823 6.96447 25.7357 6.96544C30.9309 6.96732 31.4986 7.00795 32.3393 7.43857C33.2604 7.91038 33.8059 8.87827 33.9789 10.3484C34.1899 12.1407 33.7494 13.7965 32.8603 14.5529C32.6239 14.7542 32.1815 14.9812 31.7695 15.1129C31.1099 15.3238 31.0853 15.3424 31.2567 15.5005C31.5036 15.7282 36.6046 20.3851 36.9323 20.6821L37.1962 20.9208L37.8787 20.5543C39.8023 19.5215 41.0523 18.0009 41.7905 15.7958C42.2461 14.4343 42.444 13.0298 42.4417 11.171C42.4374 7.56868 41.6142 5.0379 39.8323 3.14784C38.2424 1.4617 35.7428 0.434538 32.4238 0.103532C31.9351 0.0547595 25.0274 0.0115802 17.0733 0.00745857L2.61133 0L3.05744 0.415206Z" fill="#788FBB"/>
</g>
<defs>
<clipPath id="clip0_114_13399">
<rect width="116" height="32" fill="white"/>
</clipPath>
</defs>
</svg>
