<svg width="36" height="32" viewBox="0 0 36 32" fill="none" xmlns="http://www.w3.org/2000/svg">
<path d="M12 30.384V28H3.232C2.31067 28 1.542 27.692 0.926 27.076C0.31 26.46 0.00133333 25.6907 0 24.768V3.23201C0 2.31068 0.308667 1.54201 0.926 0.926013C1.54333 0.310013 2.31133 0.00134713 3.23 1.37931e-05H16.846C17.1313 1.37931e-05 17.3693 0.0953474 17.56 0.286014C17.7507 0.476681 17.846 0.71468 17.846 1.00001C17.846 1.28535 17.7507 1.52335 17.56 1.71401C17.3693 1.90468 17.1313 2.00001 16.846 2.00001H3.232C2.924 2.00001 2.64133 2.12801 2.384 2.38401C2.12667 2.64001 1.99867 2.92268 2 3.23201V24.77C2 25.0767 2.128 25.3587 2.384 25.616C2.64 25.8733 2.922 26.0013 3.23 26H32.77C33.0767 26 33.3587 25.872 33.616 25.616C33.8733 25.36 34.0013 25.078 34 24.77V22C34 21.716 34.0953 21.478 34.286 21.286C34.4767 21.094 34.7147 20.9987 35 21C35.2853 21.0013 35.5233 21.0967 35.714 21.286C35.9047 21.4753 36 21.7133 36 22V24.77C36 25.69 35.692 26.458 35.076 27.074C34.46 27.69 33.6913 27.9987 32.77 28H24V30.384C24 30.8493 23.8467 31.2347 23.54 31.54C23.2333 31.8453 22.848 31.9987 22.384 32H13.616C13.152 32 12.7667 31.8467 12.46 31.54C12.1533 31.2333 12 30.848 12 30.384ZM26.692 14.734V1.00001C26.692 0.716014 26.788 0.478014 26.98 0.286014C27.172 0.094014 27.4093 -0.00131954 27.692 1.37931e-05C27.9747 0.00134713 28.2127 0.0966807 28.406 0.286014C28.5967 0.478014 28.692 0.716014 28.692 1.00001V14.734L34.262 9.17601C34.4487 8.98935 34.67 8.90068 34.926 8.91001C35.182 8.91935 35.4067 9.02135 35.6 9.21601C35.7867 9.40268 35.88 9.63201 35.88 9.90401C35.88 10.176 35.7867 10.4053 35.6 10.592L28.822 17.37C28.4993 17.6927 28.1227 17.854 27.692 17.854C27.2613 17.854 26.8847 17.6927 26.562 17.37L19.746 10.554C19.5593 10.3673 19.4707 10.14 19.48 9.87201C19.4893 9.60401 19.5907 9.37201 19.784 9.17601C19.9707 8.98935 20.2007 8.89601 20.474 8.89601C20.7473 8.89601 20.9767 8.98935 21.162 9.17601L26.692 14.734Z" fill="#788FBB"/>
</svg>
