<svg width="37" height="34" viewBox="0 0 37 34" fill="none" xmlns="http://www.w3.org/2000/svg">
<path fill-rule="evenodd" clip-rule="evenodd" d="M22.3561 18.4537C18.2916 16.5966 15.4648 12.5345 15.4648 7.81813C15.4648 7.76704 15.4549 7.71201 15.4329 7.65503C15.413 7.60197 15.3871 7.5607 15.3652 7.53515H4.08256C2.9543 7.53515 2.0413 8.43521 2.0413 9.54746V29.975C2.0413 31.0853 2.9543 31.9873 4.08256 31.9873H20.578C21.7063 31.9873 22.6193 31.0853 22.6193 29.975V18.6793C22.6173 18.6734 22.6113 18.6577 22.5934 18.6322C22.5535 18.5791 22.4738 18.5068 22.3561 18.4537ZM23.2153 16.6261C24.0426 17.0054 24.6605 17.7777 24.6605 18.6777V29.9754C24.6605 32.198 22.8326 34 20.578 34H4.08253C1.82795 34 0 32.198 0 29.9754V9.54788C0 7.32528 1.82795 5.52326 4.08253 5.52326H15.433C16.6291 5.52326 17.5062 6.63949 17.5062 7.81855C17.5062 11.7233 19.8442 15.0872 23.2153 16.6261Z" fill="#788FBB"/>
<path fill-rule="evenodd" clip-rule="evenodd" d="M4.02659 13.6805C4.02659 13.2108 4.40932 12.8316 4.88775 12.8316H11.6255C12.1039 12.8316 12.4866 13.2108 12.4866 13.6805C12.4866 14.1482 12.1039 14.5294 11.6255 14.5294H4.88775C4.40932 14.5294 4.02659 14.1482 4.02659 13.6805ZM4.02659 19.7607C4.02659 19.291 4.40932 18.9118 4.88775 18.9118H16.721C17.1994 18.9118 17.5821 19.291 17.5821 19.7607C17.5821 20.2284 17.1994 20.6097 16.721 20.6097H4.88775C4.40932 20.6097 4.02659 20.2284 4.02659 19.7607ZM4.88775 24.9902C4.40932 24.9902 4.02659 25.3695 4.02659 25.8392C4.02659 26.3069 4.40932 26.6881 4.88775 26.6881H16.721C17.1994 26.6881 17.5821 26.3069 17.5821 25.8392C17.5821 25.3695 17.1994 24.9902 16.721 24.9902H4.88775Z" fill="#788FBB"/>
<path fill-rule="evenodd" clip-rule="evenodd" d="M31.749 13.6156C31.2786 13.9379 30.7682 14.2111 30.2101 14.4272C26.319 15.9482 21.9093 14.0676 20.3707 10.2296C18.8318 6.38974 20.7395 2.04657 24.6287 0.527774C26.7816 -0.313322 29.094 -0.114807 30.9918 0.879537C32.5228 1.68331 33.7826 3.00781 34.4683 4.72532C35.5308 7.35471 34.9707 10.2199 33.2563 12.2539L36.701 15.6477C37.0997 16.0407 37.0997 16.6775 36.701 17.0705C36.3043 17.4635 35.6584 17.4635 35.2598 17.0705L31.749 13.6156ZM32.5703 5.46624C33.7026 8.27246 32.3072 11.4463 29.4606 12.5566C26.6139 13.6669 23.3944 12.2933 22.2702 9.48901C21.7021 8.08391 21.7738 6.5865 22.34 5.30128C22.9081 4.01999 23.9586 2.95291 25.3779 2.39877C28.2245 1.28848 31.4481 2.66195 32.5703 5.46624Z" fill="#788FBB"/>
</svg>
