<svg width="46" height="36" viewBox="0 0 46 36" fill="none" xmlns="http://www.w3.org/2000/svg">
<path d="M28.3076 32.0106C31.9498 32.0106 35.4445 30.5517 38.0199 27.9544C40.5953 25.3571 42.0419 21.8326 42.0419 18.1594C42.0419 14.4863 40.5953 10.9618 38.0199 8.36451C35.4445 5.76718 31.9498 4.30832 28.3076 4.30832C24.6654 4.30832 21.1707 5.76723 18.5953 8.36451C16.0199 10.9618 14.5733 14.4863 14.5733 18.1594C14.5776 21.8326 16.0264 25.3532 18.5995 27.95C21.1749 30.5451 24.6654 32.0063 28.3076 32.0106ZM27.4541 6.06811V7.06226C27.4541 7.53781 27.8361 7.92299 28.3076 7.92299C28.7791 7.92299 29.1611 7.53781 29.1611 7.06226V6.06811C32.0266 6.27684 34.7259 7.51199 36.7655 9.5519C38.8074 11.5918 40.0577 14.301 40.2903 17.1885H39.2043C38.7327 17.1885 38.3508 17.5737 38.3508 18.0493C38.3508 18.5248 38.7327 18.91 39.2043 18.91H40.3031H40.301C40.1175 21.8408 38.8885 24.6015 36.8402 26.6866C34.7919 28.7717 32.0629 30.0369 29.1609 30.25V29.0622C29.1609 28.5867 28.779 28.2015 28.3074 28.2015C27.8359 28.2015 27.454 28.5867 27.454 29.0622V30.2737V30.2715C24.5479 30.0585 21.8192 28.7911 19.7709 26.7017C17.7225 24.6122 16.4957 21.8429 16.3186 18.9097H17.411C17.8826 18.9097 18.2645 18.5245 18.2645 18.0489C18.2645 17.5734 17.8826 17.1882 17.411 17.1882H16.3292H16.3314C16.5639 14.3005 17.8121 11.5936 19.8519 9.55377C21.8938 7.51386 24.5886 6.27899 27.4541 6.06811ZM45.9977 18.1591C45.9934 22.8887 44.1264 27.4246 40.8107 30.7689C37.495 34.1132 32.9971 35.9957 28.3073 36H10.0024C9.53086 36 9.14894 35.6148 9.14894 35.1393C9.14894 34.6637 9.53086 34.2785 10.0024 34.2785H28.3073C32.5468 34.2785 36.6114 32.5829 39.6112 29.5596C42.6091 26.5384 44.2946 22.4391 44.2946 18.1633C44.2968 13.8877 42.6133 9.78629 39.6155 6.76314C36.6198 3.73983 32.5529 2.04206 28.3153 2.03991C24.0758 2.03991 20.009 3.73768 17.0114 6.76099C14.0136 9.78431 12.3301 13.8837 12.3301 18.159C12.3301 18.6345 11.9482 19.0197 11.4766 19.0197C11.0051 19.0197 10.6232 18.6345 10.6232 18.159C10.5378 13.3733 12.3643 8.75347 15.6906 5.33866C19.0148 1.92373 23.5638 0 28.3093 0C33.0567 0 37.6038 1.92373 40.9297 5.33866C44.2561 8.75358 46.0825 13.3736 45.9971 18.159L45.9977 18.1591ZM27.6524 18.7336C27.5201 18.5722 27.4497 18.3678 27.454 18.1591V11.2325C27.454 10.7569 27.8359 10.3718 28.3074 10.3718C28.779 10.3718 29.1609 10.7569 29.1609 11.2325V17.8495L31.875 21.1267C32.0222 21.301 32.0926 21.5291 32.0713 21.7572C32.052 21.9852 31.9411 22.1961 31.7661 22.3424C31.5933 22.4888 31.3693 22.5619 31.1431 22.5404C30.9191 22.521 30.71 22.4092 30.567 22.2327L27.6524 18.7336ZM16.6428 30.1299C17.1144 30.1299 17.4963 30.5151 17.4963 30.9907C17.4963 31.4662 17.1144 31.8514 16.6428 31.8514H15.9024H15.9046C15.433 31.8514 15.0511 31.4662 15.0511 30.9907C15.0511 30.5151 15.433 30.1299 15.9046 30.1299H16.6428ZM5.87851 30.9907C5.87851 30.5151 6.26044 30.1299 6.73198 30.1299H12.99C13.4615 30.1299 13.8435 30.5151 13.8435 30.9907C13.8435 31.4662 13.4615 31.8514 12.99 31.8514H6.73198C6.26044 31.8514 5.87851 31.4662 5.87851 30.9907ZM13.9691 26.842C13.9691 27.3175 13.5872 27.7027 13.1156 27.7027H8.37036C7.89882 27.7027 7.51689 27.3175 7.51689 26.842C7.51689 26.3664 7.89882 25.9812 8.37036 25.9812H13.1156C13.3418 25.9812 13.5594 26.0716 13.7195 26.233C13.8795 26.3944 13.9691 26.6139 13.9691 26.842ZM6.28818 26.842C6.28818 27.3175 5.90625 27.7027 5.43471 27.7027H3.20505C2.73351 27.7027 2.35158 27.3175 2.35158 26.842C2.35158 26.3664 2.73351 25.9812 3.20505 25.9812H5.43471C5.66088 25.9812 5.87851 26.0716 6.03855 26.233C6.1986 26.3944 6.28818 26.6139 6.28818 26.842ZM11.6202 22.6933C11.6202 23.1688 11.2383 23.554 10.7667 23.554H9.13233C8.66079 23.554 8.27887 23.1688 8.27887 22.6933C8.27887 22.2177 8.66079 21.8326 9.13233 21.8326H10.7667C11.2383 21.8326 11.6202 22.2177 11.6202 22.6933ZM0 22.6933C0 22.2177 0.381927 21.8326 0.853466 21.8326H6.19613C6.66767 21.8326 7.0496 22.2177 7.0496 22.6933C7.0496 23.1688 6.66767 23.554 6.19613 23.554H0.853466C0.381927 23.554 0 23.1688 0 22.6933Z" fill="#788FBB"/>
</svg>
