<svg width="52" height="36" viewBox="0 0 52 36" fill="none" xmlns="http://www.w3.org/2000/svg">
<path fill-rule="evenodd" clip-rule="evenodd" d="M20.2075 23.3616C19.8436 23.3616 19.5476 23.0651 19.5476 22.7008C19.5476 22.3364 19.8436 22.0399 20.2075 22.0399C20.5714 22.0399 20.8673 22.3364 20.8673 22.7008C20.8673 23.0651 20.5714 23.3616 20.2075 23.3616ZM20.2075 20.003C18.7221 20.003 17.5137 21.2132 17.5137 22.7008C17.5137 24.1883 18.7221 25.3985 20.2075 25.3985C21.6928 25.3985 22.9012 24.1883 22.9012 22.7008C22.9012 21.2132 21.6928 20.003 20.2075 20.003ZM41.9891 33.9631C38.2833 33.9631 35.1599 31.419 34.268 27.9833C34.2655 27.9736 34.263 27.964 34.2604 27.9544C34.1995 27.716 34.1499 27.4731 34.1109 27.2268C34.1069 27.2012 34.103 27.1755 34.0993 27.1499C34.0818 27.0316 34.0661 26.9129 34.0539 26.7931C34.0537 26.7917 34.0535 26.7905 34.0534 26.7891C34.0413 26.6701 34.0328 26.55 34.0259 26.4295C34.0243 26.3992 34.0227 26.3689 34.0214 26.3386C34.016 26.2177 34.0122 26.0964 34.0122 25.9741C34.0122 25.8486 34.016 25.7239 34.0217 25.5998C34.0231 25.5689 34.025 25.5382 34.0268 25.5075C34.0329 25.4026 34.0406 25.2981 34.0506 25.1944C34.0525 25.176 34.0541 25.1575 34.0558 25.1392C34.4742 21.1251 37.8722 17.9852 41.9891 17.9852C46.3876 17.9852 49.9661 21.569 49.9661 25.9741C49.9661 30.3792 46.3876 33.9631 41.9891 33.9631ZM32.0746 27.3667H6.74744C4.17312 27.3667 2.0787 25.2692 2.0787 22.6909C2.0787 20.1126 4.17312 18.0151 6.74744 18.0151H35.8975C35.0781 18.6447 34.3564 19.4019 33.7575 20.2671C32.9928 21.3715 32.4666 22.6025 32.1945 23.8987C32.1888 23.9256 32.183 23.9525 32.1775 23.9795C32.1648 24.0426 32.1526 24.1059 32.1411 24.1694C32.1313 24.2223 32.1226 24.2754 32.1138 24.3287C32.1016 24.4024 32.0902 24.4763 32.0797 24.5503C32.0696 24.6207 32.0602 24.6913 32.0515 24.7622C32.0465 24.8044 32.0416 24.8468 32.0371 24.8892C32.0265 24.9874 32.0168 25.086 32.0092 25.185C32.0077 25.2043 32.0065 25.2235 32.005 25.2427C31.9978 25.3425 31.9923 25.4427 31.9881 25.5432C31.9868 25.5737 31.9856 25.6042 31.9846 25.6349C31.9808 25.7475 31.9783 25.8606 31.9783 25.9741C31.9783 26.0798 31.9804 26.1848 31.9837 26.2896C31.9846 26.3184 31.9858 26.3471 31.9869 26.3759C31.9903 26.4589 31.9946 26.5416 31.9999 26.6241C32.0015 26.6486 32.0028 26.673 32.0044 26.6975C32.0122 26.8039 32.0211 26.9099 32.0321 27.0154C32.0329 27.024 32.034 27.0324 32.0349 27.041C32.0452 27.1374 32.0571 27.2335 32.07 27.3291C32.0716 27.3416 32.0728 27.3542 32.0746 27.3667ZM41.9891 15.9483C40.8506 15.9483 39.7562 16.1401 38.7356 16.4923C37.9211 16.1519 37.0589 15.9781 36.1655 15.9781H6.74744C3.05152 15.9781 0.0447867 18.9895 0.0447867 22.6909C0.0447867 26.3923 3.05152 29.4037 6.74744 29.4037H32.5816C33.9833 33.2481 37.6714 36 41.9891 36C47.5091 36 52 31.5024 52 25.9741C52 20.4459 47.5091 15.9483 41.9891 15.9483ZM41.9892 29.9672C39.3107 29.1891 38.8229 25.7431 38.7426 24.1495C40.2375 23.8402 41.3358 23.2511 41.9891 22.8163C42.6427 23.2513 43.742 23.8408 45.238 24.15C45.1618 25.7433 44.6814 29.1871 41.9892 29.9672ZM46.3748 22.2702C44.0218 22.0064 42.6956 20.8081 42.6875 20.8008C42.2966 20.4207 41.6915 20.4214 41.2957 20.7961C41.2826 20.8081 39.9565 22.0064 37.6035 22.2702C37.1093 22.3256 36.7276 22.7309 36.701 23.2283C36.6971 23.3033 36.6095 25.0874 37.1358 27.0268C37.8814 29.7741 39.4826 31.498 41.7662 32.012C41.8395 32.0285 41.9143 32.0368 41.9891 32.0368C42.0638 32.0368 42.1387 32.0285 42.212 32.012C44.4956 31.498 46.0969 29.7741 46.8425 27.0268C47.3688 25.0874 47.2812 23.3033 47.2772 23.2283C47.2507 22.7309 46.8691 22.3256 46.3748 22.2702ZM6.70692 2.03695H36.1466C38.7233 2.03695 40.8196 4.13643 40.8196 6.71693C40.8196 9.29754 38.7233 11.3969 36.1466 11.3969H6.70692C4.13016 11.3969 2.03391 9.29754 2.03391 6.71693C2.03391 4.13643 4.13016 2.03695 6.70692 2.03695ZM6.70692 13.4339H36.1466C39.8448 13.4339 42.8535 10.4207 42.8535 6.71693C42.8535 3.01315 39.8448 0 36.1466 0H6.70692C3.00876 0 0 3.01315 0 6.71693C0 10.4207 3.00876 13.4339 6.70692 13.4339ZM7.49248 6.07016C7.85634 6.07016 8.15228 6.36664 8.15228 6.73105C8.15228 7.09536 7.85634 7.39184 7.49248 7.39184C7.12861 7.39184 6.83268 7.09536 6.83268 6.73105C6.83268 6.36664 7.12861 6.07016 7.49248 6.07016ZM7.49248 9.42878C8.97774 9.42878 10.1862 8.21853 10.1862 6.73105C10.1862 5.24347 8.97774 4.03322 7.49248 4.03322C6.00721 4.03322 4.79877 5.24347 4.79877 6.73105C4.79877 8.21853 6.00721 9.42878 7.49248 9.42878ZM13.8499 6.07016C14.2138 6.07016 14.5098 6.36664 14.5098 6.73105C14.5098 7.09536 14.2138 7.39184 13.8499 7.39184C13.4861 7.39184 13.1901 7.09536 13.1901 6.73105C13.1901 6.36664 13.4861 6.07016 13.8499 6.07016ZM13.8499 9.42878C15.3353 9.42878 16.5437 8.21853 16.5437 6.73105C16.5437 5.24347 15.3353 4.03322 13.8499 4.03322C12.3647 4.03322 11.1562 5.24347 11.1562 6.73105C11.1562 8.21853 12.3647 9.42878 13.8499 9.42878ZM20.2075 6.07016C20.5714 6.07016 20.8673 6.36664 20.8673 6.73105C20.8673 7.09536 20.5714 7.39184 20.2075 7.39184C19.8436 7.39184 19.5476 7.09536 19.5476 6.73105C19.5476 6.36664 19.8436 6.07016 20.2075 6.07016ZM20.2075 9.42878C21.6928 9.42878 22.9012 8.21853 22.9012 6.73105C22.9012 5.24347 21.6928 4.03322 20.2075 4.03322C18.7221 4.03322 17.5137 5.24347 17.5137 6.73105C17.5137 8.21853 18.7221 9.42878 20.2075 9.42878ZM7.49248 23.3616C7.12861 23.3616 6.83268 23.0651 6.83268 22.7008C6.83268 22.3364 7.12861 22.0399 7.49248 22.0399C7.85634 22.0399 8.15228 22.3364 8.15228 22.7008C8.15228 23.0651 7.85634 23.3616 7.49248 23.3616ZM7.49248 20.003C6.00721 20.003 4.79877 21.2132 4.79877 22.7008C4.79877 24.1883 6.00721 25.3985 7.49248 25.3985C8.97774 25.3985 10.1862 24.1883 10.1862 22.7008C10.1862 21.2132 8.97774 20.003 7.49248 20.003ZM13.8499 23.3616C13.4861 23.3616 13.1901 23.0651 13.1901 22.7008C13.1901 22.3364 13.4861 22.0399 13.8499 22.0399C14.2138 22.0399 14.5098 22.3364 14.5098 22.7008C14.5098 23.0651 14.2138 23.3616 13.8499 23.3616ZM13.8499 20.003C12.3647 20.003 11.1562 21.2132 11.1562 22.7008C11.1562 24.1883 12.3647 25.3985 13.8499 25.3985C15.3353 25.3985 16.5437 24.1883 16.5437 22.7008C16.5437 21.2132 15.3353 20.003 13.8499 20.003Z" fill="#788FBB"/>
</svg>
