<svg width="38" height="38" viewBox="0 0 38 38" fill="none" xmlns="http://www.w3.org/2000/svg">
<path d="M21.8421 20.8947L28.4737 13.3158M7.63158 19C7.6313 17.0043 8.15638 15.0437 9.15406 13.3152C10.1517 11.5868 11.5868 10.1514 13.3151 9.15345C15.0434 8.15548 17.0039 7.63004 18.9996 7.62997C20.9953 7.6299 22.9559 8.1552 24.6842 9.15305M22.7895 24.6842C22.7895 25.6892 22.3902 26.6531 21.6796 27.3638C20.9689 28.0744 20.005 28.4737 19 28.4737C17.995 28.4737 17.0311 28.0744 16.3204 27.3638C15.6098 26.6531 15.2105 25.6892 15.2105 24.6842C15.2105 23.6792 15.6098 22.7153 16.3204 22.0046C17.0311 21.294 17.995 20.8947 19 20.8947C20.005 20.8947 20.9689 21.294 21.6796 22.0046C22.3902 22.7153 22.7895 23.6792 22.7895 24.6842ZM1 19C1 10.5154 1 6.27116 3.63558 3.63558C6.27116 1 10.5135 1 19 1C27.4846 1 31.7288 1 34.3644 3.63558C37 6.27116 37 10.5135 37 19C37 27.4846 37 31.7288 34.3644 34.3644C31.7288 37 27.4865 37 19 37C10.5154 37 6.27116 37 3.63558 34.3644C1 31.7288 1 27.4865 1 19Z" stroke="#788FBB" stroke-width="2" stroke-linecap="round" stroke-linejoin="round"/>
</svg>
